<?xml version="1.0" encoding="UTF-8" standalone="no"?>
<svg
   xmlns:dc="http://purl.org/dc/elements/1.1/"
   xmlns:cc="http://creativecommons.org/ns#"
   xmlns:rdf="http://www.w3.org/1999/02/22-rdf-syntax-ns#"
   xmlns:svg="http://www.w3.org/2000/svg"
   xmlns="http://www.w3.org/2000/svg"
   xmlns:sodipodi="http://sodipodi.sourceforge.net/DTD/sodipodi-0.dtd"
   xmlns:inkscape="http://www.inkscape.org/namespaces/inkscape"
   viewBox="0 0 688.06 153.67"
   version="1.1"
   id="svg3767"
   sodipodi:docname="logotipo-gobierno.svg"
   inkscape:version="0.92.4 (5da689c313, 2019-01-14)"
   width="688.06"
   height="153.67">
  <metadata
     id="metadata3771">
    <rdf:RDF>
      <cc:Work
         rdf:about="">
        <dc:format>image/svg+xml</dc:format>
        <dc:type
           rdf:resource="http://purl.org/dc/dcmitype/StillImage" />
        <dc:title>logotipo</dc:title>
      </cc:Work>
    </rdf:RDF>
  </metadata>
  <sodipodi:namedview
     pagecolor="#ffffff"
     bordercolor="#666666"
     borderopacity="1"
     objecttolerance="10"
     gridtolerance="10"
     guidetolerance="10"
     inkscape:pageopacity="0"
     inkscape:pageshadow="2"
     inkscape:window-width="1600"
     inkscape:window-height="837"
     id="namedview3769"
     showgrid="false"
     inkscape:zoom="1.6532046"
     inkscape:cx="369.16709"
     inkscape:cy="76.834999"
     inkscape:window-x="-8"
     inkscape:window-y="-8"
     inkscape:window-maximized="1"
     inkscape:current-layer="svg3767" />
  <defs
     id="defs3745">
    <style
       id="style3743">
			.cls-1{fill:#0038df;}
			.cls-2{fill:#fff;}
			.cls-3{fill:#fffc4a;}
			.cls-4{fill:#009447;}
			.cls-5{fill:#414144;}
		</style>
  </defs>
  <title
     id="title3747">logotipo</title>
  <g
     id="logocalles"
     transform="translate(7.8635155,-4.8390865)">
    <path
       class="cls-1"
       d="m 76.174886,35.47 c -3,-3.77 -11.23,-13.24 -25.08,-16.84 a 46.6,46.6 0 0 0 -16.85,-1.13 c -4,0.46 -10.1,1.16 -16.47,5.24 a 33.49,33.49 0 0 0 -9.7300002,9.74 c -11.27,16.49 -6.55,38 -6,40.43 2.49,10.69 7.78,18.78 15.3500002,30.32 2.91,4.44 5.55,8 7.49,10.48 10.85,-10.11 49.46,-40 79.000004,-55 24.51,-12.46 42.68,-12.73 52,-11.6 a 39.3,39.3 0 0 0 -10.86,-19.09 39.91,39.91 0 0 0 -25.08,-10.86 44.5,44.5 0 0 0 -22.810004,4.89 45.1,45.1 0 0 0 -15.72,13.42 4.83,4.83 0 0 1 -2.24,0.75 5,5 0 0 1 -3,-0.75 z"
       id="path3749"
       inkscape:connector-curvature="0"
       style="fill:#0038df" />
    <path
       class="cls-2"
       d="m 35.744886,32.48 v 6.74 l -2.24,0.74 -3,-6 -3,1.49 2.24,5.24 -2.23,2.27 -4.5,-4.49 -3,2.24 4.49,4.5 -1.49,2.24 -6,-2.24 -1.48,3.74 5.28,2.25 v 3 h -6 v 3.74 h 6 l 0.75,2.25 -6,3 2.25,3.73 5.24,-3 1.5,2.25 -4.49,4.49 3,3 4.5,-5.24 2.24,2.24 -3,5.24 4.49,2.25 2.25,-6 h 3 v 6.74 h 3.74 v -6.73 l 2.25,-0.75 3,6 3.75,-1.5 -3,-5.24 2.25,-2.24 5.24,5.24 3,-2.25 -5.24,-5.24 1.5,-2.25 6,3 2.25,-3.75 -6.74,-3 0.75,-2.25 h 6.74 v -3.74 h -6.82 l -0.75,-3 6,-2.25 -1.5,-3.74 -6,3 -1.5,-3 5.24,-4.5 -3,-2.24 -5.24,4.49 -2.25,-1.5 3,-6 -3.75,-1.49 -2.24,6 -3,-0.74 v -6.74 z"
       id="path3751"
       inkscape:connector-curvature="0"
       style="fill:#ffffff" />
    <path
       class="cls-3"
       d="m 38.744886,41.46 a 14.76,14.76 0 0 0 -11.23,4.49 14.318527,14.318527 0 0 0 21,19.47 14.55,14.55 0 0 0 3.74,-9.73 14.14,14.14 0 0 0 -3,-9 14.63,14.63 0 0 0 -10.51,-5.23 z"
       id="path3753"
       inkscape:connector-curvature="0"
       style="fill:#fffc4a" />
    <path
       class="cls-4"
       d="m 31.624886,121.2 q 11,-7.85 23.21,-15.72 c 13.16,-8.43 25.98,-15.89 38.19,-22.43 12.620004,-7.08 30.000004,-14.09 50.910004,-15 3.09,-0.13 6.09,-0.12 9,0 -0.86,2.72 -1.78,11.13 -7.48,21 -3.61,6.22 -9.94,17.63 -18.72,27 -10.68,11.34 -24,20.4 -28.450004,23.21 a 162,162 0 0 1 -20.24,10.39 7.86,7.86 0 0 1 -6.74,0 c -4.53,-2.34 -9.31,-5.06 -14.22,-8.24 a 167.09,167.09 0 0 1 -25.46,-20.21 z"
       id="path3755"
       inkscape:connector-curvature="0"
       style="fill:#009447" />
  </g>
  <g
     id="titulo"
     transform="translate(10.887945,-5.4439723)">
    <g
       aria-label="GOBIERNO BOLIVARIANO DE"
       style="font-style:normal;font-weight:normal;font-size:32px;line-height:1.25;font-family:sans-serif;letter-spacing:0px;word-spacing:0px;fill:#666666;fill-opacity:1;stroke:none"
       id="text3775">
      <path
         d="m 180.44315,40.822011 q 4.288,0 7.392,2.72 l -2.656,2.784 q -1.184,-0.896 -2.208,-1.28 -0.992,-0.416 -2.304,-0.416 -2.464,0 -3.936,1.952 -1.472,1.92 -1.472,5.856 0,4.256 1.12,6.048 1.12,1.76 3.488,1.76 1.664,0 3.008,-0.736 v -5.024 h -2.88 l -0.512,-3.712 h 8.48 v 10.976 q -1.728,1.12 -3.808,1.728 -2.08,0.608 -4.16,0.608 -5.056,0 -7.616,-2.944 -2.56,-2.976 -2.56,-8.704 0,-3.648 1.376,-6.272 1.408,-2.624 3.808,-3.968 2.432,-1.376 5.44,-1.376 z"
         style="font-style:normal;font-variant:normal;font-weight:bold;font-stretch:normal;font-size:32px;line-height:0;font-family:'Fira Sans';-inkscape-font-specification:'Fira Sans Bold';fill:#666666"
         id="path6233" />
      <path
         d="m 200.42815,40.822011 q 4.736,0 7.36,3.04 2.656,3.04 2.656,8.576 0,3.616 -1.216,6.24 -1.184,2.624 -3.456,4.032 -2.24,1.376 -5.344,1.376 -3.104,0 -5.344,-1.376 -2.24,-1.376 -3.456,-3.968 -1.184,-2.624 -1.184,-6.304 0,-3.584 1.184,-6.208 1.216,-2.624 3.456,-4 2.24,-1.408 5.344,-1.408 z m 0,3.84 q -2.272,0 -3.392,1.856 -1.088,1.824 -1.088,5.92 0,4.096 1.12,5.952 1.12,1.856 3.36,1.856 2.304,0 3.392,-1.824 1.12,-1.856 1.12,-5.984 0,-4.128 -1.12,-5.952 -1.12,-1.824 -3.392,-1.824 z"
         style="font-style:normal;font-variant:normal;font-weight:bold;font-stretch:normal;font-size:32px;line-height:0;font-family:'Fira Sans';-inkscape-font-specification:'Fira Sans Bold';fill:#666666"
         id="path6235" />
      <path
         d="m 225.40115,51.798011 q 2.208,0.416 3.584,1.632 1.408,1.216 1.408,3.648 0,3.552 -2.56,5.024 -2.528,1.44 -7.104,1.44 h -7.136 v -22.176 h 6.272 q 4.672,0 7.136,1.344 2.464,1.312 2.464,4.32 0,1.952 -1.184,3.168 -1.152,1.184 -2.88,1.6 z m -6.56,-6.72 v 5.152 h 1.952 q 3.328,0 3.328,-2.688 0,-1.344 -0.896,-1.888 -0.896,-0.576 -2.848,-0.576 z m 1.92,14.656 q 2.08,0 3.136,-0.608 1.088,-0.64 1.088,-2.336 0,-3.072 -3.84,-3.072 h -2.304 v 6.016 z"
         style="font-style:normal;font-variant:normal;font-weight:bold;font-stretch:normal;font-size:32px;line-height:0;font-family:'Fira Sans';-inkscape-font-specification:'Fira Sans Bold';fill:#666666"
         id="path6237" />
      <path
         d="m 238.59115,41.366011 v 22.176 h -5.248 v -22.176 z"
         style="font-style:normal;font-variant:normal;font-weight:bold;font-stretch:normal;font-size:32px;line-height:0;font-family:'Fira Sans';-inkscape-font-specification:'Fira Sans Bold';fill:#666666"
         id="path6239" />
      <path
         d="m 256.31815,41.366011 -0.544,3.744 h -7.808 v 5.312 h 6.816 v 3.68 h -6.816 v 5.664 h 8.352 v 3.776 h -13.6 v -22.176 z"
         style="font-style:normal;font-variant:normal;font-weight:bold;font-stretch:normal;font-size:32px;line-height:0;font-family:'Fira Sans';-inkscape-font-specification:'Fira Sans Bold';fill:#666666"
         id="path6241" />
      <path
         d="m 266.82665,55.062011 h -2.048 v 8.48 h -5.248 v -22.176 h 7.264 q 4.544,0 6.816,1.664 2.304,1.664 2.304,5.088 0,2.144 -1.024,3.584 -1.024,1.408 -3.232,2.4 l 5.632,9.44 h -5.92 z m -2.048,-3.616 h 2.208 q 1.76,0 2.624,-0.8 0.896,-0.8 0.896,-2.528 0,-1.6 -0.96,-2.336 -0.928,-0.736 -2.88,-0.736 h -1.888 z"
         style="font-style:normal;font-variant:normal;font-weight:bold;font-stretch:normal;font-size:32px;line-height:0;font-family:'Fira Sans';-inkscape-font-specification:'Fira Sans Bold';fill:#666666"
         id="path6243" />
      <path
         d="m 296.36865,63.542011 h -6.688 l -6.4,-17.184 q 0.32,2.528 0.48,4.48 0.192,1.92 0.192,4.576 v 8.128 h -4.672 v -22.176 h 6.528 l 6.56,17.216 q -0.704,-4.384 -0.704,-8.256 v -8.96 h 4.704 z"
         style="font-style:normal;font-variant:normal;font-weight:bold;font-stretch:normal;font-size:32px;line-height:0;font-family:'Fira Sans';-inkscape-font-specification:'Fira Sans Bold';fill:#666666"
         id="path6245" />
      <path
         d="m 309.42815,40.822011 q 4.736,0 7.36,3.04 2.656,3.04 2.656,8.576 0,3.616 -1.216,6.24 -1.184,2.624 -3.456,4.032 -2.24,1.376 -5.344,1.376 -3.104,0 -5.344,-1.376 -2.24,-1.376 -3.456,-3.968 -1.184,-2.624 -1.184,-6.304 0,-3.584 1.184,-6.208 1.216,-2.624 3.456,-4 2.24,-1.408 5.344,-1.408 z m 0,3.84 q -2.272,0 -3.392,1.856 -1.088,1.824 -1.088,5.92 0,4.096 1.12,5.952 1.12,1.856 3.36,1.856 2.304,0 3.392,-1.824 1.12,-1.856 1.12,-5.984 0,-4.128 -1.12,-5.952 -1.12,-1.824 -3.392,-1.824 z"
         style="font-style:normal;font-variant:normal;font-weight:bold;font-stretch:normal;font-size:32px;line-height:0;font-family:'Fira Sans';-inkscape-font-specification:'Fira Sans Bold';fill:#666666"
         id="path6247" />
      <path
         d="m 341.96365,51.798011 q 2.208,0.416 3.584,1.632 1.408,1.216 1.408,3.648 0,3.552 -2.56,5.024 -2.528,1.44 -7.104,1.44 h -7.136 v -22.176 h 6.272 q 4.672,0 7.136,1.344 2.464,1.312 2.464,4.32 0,1.952 -1.184,3.168 -1.152,1.184 -2.88,1.6 z m -6.56,-6.72 v 5.152 h 1.952 q 3.328,0 3.328,-2.688 0,-1.344 -0.896,-1.888 -0.896,-0.576 -2.848,-0.576 z m 1.92,14.656 q 2.08,0 3.136,-0.608 1.088,-0.64 1.088,-2.336 0,-3.072 -3.84,-3.072 h -2.304 v 6.016 z"
         style="font-style:normal;font-variant:normal;font-weight:bold;font-stretch:normal;font-size:32px;line-height:0;font-family:'Fira Sans';-inkscape-font-specification:'Fira Sans Bold';fill:#666666"
         id="path6249" />
      <path
         d="m 358.86565,40.822011 q 4.736,0 7.36,3.04 2.656,3.04 2.656,8.576 0,3.616 -1.216,6.24 -1.184,2.624 -3.456,4.032 -2.24,1.376 -5.344,1.376 -3.104,0 -5.344,-1.376 -2.24,-1.376 -3.456,-3.968 -1.184,-2.624 -1.184,-6.304 0,-3.584 1.184,-6.208 1.216,-2.624 3.456,-4 2.24,-1.408 5.344,-1.408 z m 0,3.84 q -2.272,0 -3.392,1.856 -1.088,1.824 -1.088,5.92 0,4.096 1.12,5.952 1.12,1.856 3.36,1.856 2.304,0 3.392,-1.824 1.12,-1.856 1.12,-5.984 0,-4.128 -1.12,-5.952 -1.12,-1.824 -3.392,-1.824 z"
         style="font-style:normal;font-variant:normal;font-weight:bold;font-stretch:normal;font-size:32px;line-height:0;font-family:'Fira Sans';-inkscape-font-specification:'Fira Sans Bold';fill:#666666"
         id="path6251" />
      <path
         d="m 377.27865,41.366011 v 18.016 h 8.64 l -0.544,4.16 h -13.344 v -22.176 z"
         style="font-style:normal;font-variant:normal;font-weight:bold;font-stretch:normal;font-size:32px;line-height:0;font-family:'Fira Sans';-inkscape-font-specification:'Fira Sans Bold';fill:#666666"
         id="path6253" />
      <path
         d="m 393.71615,41.366011 v 22.176 h -5.248 v -22.176 z"
         style="font-style:normal;font-variant:normal;font-weight:bold;font-stretch:normal;font-size:32px;line-height:0;font-family:'Fira Sans';-inkscape-font-specification:'Fira Sans Bold';fill:#666666"
         id="path6255" />
      <path
         d="m 414.45115,41.366011 -6.176,22.176 h -6.528 l -6.4,-22.176 h 5.536 l 4.224,18.08 3.968,-18.08 z"
         style="font-style:normal;font-variant:normal;font-weight:bold;font-stretch:normal;font-size:32px;line-height:0;font-family:'Fira Sans';-inkscape-font-specification:'Fira Sans Bold';fill:#666666"
         id="path6257" />
      <path
         d="m 427.21065,63.542011 -1.152,-4.768 h -6.464 l -1.12,4.768 h -5.44 l 6.688,-22.176 h 6.368 l 6.688,22.176 z m -6.72,-8.576 h 4.672 l -2.336,-9.792 z"
         style="font-style:normal;font-variant:normal;font-weight:bold;font-stretch:normal;font-size:32px;line-height:0;font-family:'Fira Sans';-inkscape-font-specification:'Fira Sans Bold';fill:#666666"
         id="path6259" />
      <path
         d="m 441.70165,55.062011 h -2.048 v 8.48 h -5.248 v -22.176 h 7.264 q 4.544,0 6.816,1.664 2.304,1.664 2.304,5.088 0,2.144 -1.024,3.584 -1.024,1.408 -3.232,2.4 l 5.632,9.44 h -5.92 z m -2.048,-3.616 h 2.208 q 1.76,0 2.624,-0.8 0.896,-0.8 0.896,-2.528 0,-1.6 -0.96,-2.336 -0.928,-0.736 -2.88,-0.736 h -1.888 z"
         style="font-style:normal;font-variant:normal;font-weight:bold;font-stretch:normal;font-size:32px;line-height:0;font-family:'Fira Sans';-inkscape-font-specification:'Fira Sans Bold';fill:#666666"
         id="path6261" />
      <path
         d="m 459.40365,41.366011 v 22.176 h -5.248 v -22.176 z"
         style="font-style:normal;font-variant:normal;font-weight:bold;font-stretch:normal;font-size:32px;line-height:0;font-family:'Fira Sans';-inkscape-font-specification:'Fira Sans Bold';fill:#666666"
         id="path6263" />
      <path
         d="m 475.21065,63.542011 -1.152,-4.768 h -6.464 l -1.12,4.768 h -5.44 l 6.688,-22.176 h 6.368 l 6.688,22.176 z m -6.72,-8.576 h 4.672 l -2.336,-9.792 z"
         style="font-style:normal;font-variant:normal;font-weight:bold;font-stretch:normal;font-size:32px;line-height:0;font-family:'Fira Sans';-inkscape-font-specification:'Fira Sans Bold';fill:#666666"
         id="path6265" />
      <path
         d="m 499.49365,63.542011 h -6.688 l -6.4,-17.184 q 0.32,2.528 0.48,4.48 0.192,1.92 0.192,4.576 v 8.128 h -4.672 v -22.176 h 6.528 l 6.56,17.216 q -0.704,-4.384 -0.704,-8.256 v -8.96 h 4.704 z"
         style="font-style:normal;font-variant:normal;font-weight:bold;font-stretch:normal;font-size:32px;line-height:0;font-family:'Fira Sans';-inkscape-font-specification:'Fira Sans Bold';fill:#666666"
         id="path6267" />
      <path
         d="m 512.55315,40.822011 q 4.736,0 7.36,3.04 2.656,3.04 2.656,8.576 0,3.616 -1.216,6.24 -1.184,2.624 -3.456,4.032 -2.24,1.376 -5.344,1.376 -3.104,0 -5.344,-1.376 -2.24,-1.376 -3.456,-3.968 -1.184,-2.624 -1.184,-6.304 0,-3.584 1.184,-6.208 1.216,-2.624 3.456,-4 2.24,-1.408 5.344,-1.408 z m 0,3.84 q -2.272,0 -3.392,1.856 -1.088,1.824 -1.088,5.92 0,4.096 1.12,5.952 1.12,1.856 3.36,1.856 2.304,0 3.392,-1.824 1.12,-1.856 1.12,-5.984 0,-4.128 -1.12,-5.952 -1.12,-1.824 -3.392,-1.824 z"
         style="font-style:normal;font-variant:normal;font-weight:bold;font-stretch:normal;font-size:32px;line-height:0;font-family:'Fira Sans';-inkscape-font-specification:'Fira Sans Bold';fill:#666666"
         id="path6269" />
      <path
         d="m 539.45665,41.366011 q 5.216,0 8.352,2.368 3.168,2.336 3.168,8.608 0,6.176 -3.072,8.704 -3.072,2.496 -7.968,2.496 h -6.656 v -22.176 z m -0.928,3.808 v 14.56 h 1.728 q 2.592,0 3.936,-1.6 1.344,-1.632 1.344,-5.792 0,-2.848 -0.672,-4.416 -0.672,-1.568 -1.824,-2.144 -1.152,-0.608 -2.848,-0.608 z"
         style="font-style:normal;font-variant:normal;font-weight:bold;font-stretch:normal;font-size:32px;line-height:0;font-family:'Fira Sans';-inkscape-font-specification:'Fira Sans Bold';fill:#666666"
         id="path6271" />
      <path
         d="m 567.69315,41.366011 -0.544,3.744 h -7.808 v 5.312 h 6.816 v 3.68 h -6.816 v 5.664 h 8.352 v 3.776 h -13.6 v -22.176 z"
         style="font-style:normal;font-variant:normal;font-weight:bold;font-stretch:normal;font-size:32px;line-height:0;font-family:'Fira Sans';-inkscape-font-specification:'Fira Sans Bold';fill:#666666"
         id="path6273" />
    </g>
    <g
       aria-label="PORTUGUESA"
       style="font-style:normal;font-weight:normal;font-size:40px;line-height:1.25;font-family:sans-serif;letter-spacing:0px;word-spacing:0px;fill:#666666;fill-opacity:1;stroke:none"
       id="text3787">
      <path
         d="m 190.68098,69.477688 q 10.83733,0 16.81066,4.437334 6.05867,4.352 6.05867,12.714667 0,5.802667 -2.73067,11.264 -2.73066,5.376001 -8.704,8.960001 -5.97333,3.49867 -15.104,3.49867 h -5.80266 l -2.56,18.51733 h -17.23734 l 8.27734,-59.392002 z m -3.84,28.501334 q 4.864,0 6.912,-3.242666 2.048,-3.242667 2.048,-7.082667 0,-5.973334 -6.912,-5.973334 h -3.66934 l -2.304,16.298667 z"
         style="font-style:italic;font-variant:normal;font-weight:900;font-stretch:normal;font-size:85.33333588px;font-family:'Fira Sans';-inkscape-font-specification:'Fira Sans Heavy Italic';fill:#666666"
         id="path6276" />
      <path
         d="m 246.19965,67.771021 q 11.43466,0 17.49333,6.485334 6.05867,6.4 6.05867,18.005334 0,9.130671 -3.072,17.834671 -3.072,8.704 -10.24,14.592 -7.168,5.888 -18.68801,5.888 -11.34933,0 -17.49333,-6.48534 -6.05867,-6.48533 -6.05867,-18.09066 0,-9.130671 3.072,-17.834671 3.072,-8.704001 10.24,-14.506667 7.25334,-5.888001 18.68801,-5.888001 z m -1.36534,12.458667 q -5.03466,0 -7.936,4.693334 -2.816,4.693333 -3.92533,10.922667 -1.024,6.144001 -1.024,11.605331 0,5.71734 1.70666,8.192 1.792,2.47467 5.46134,2.47467 5.03467,0 7.85067,-4.608 2.90133,-4.69333 3.92533,-10.92267 1.10933,-6.229331 1.10933,-11.861331 0,-5.632 -1.792,-8.021334 -1.70666,-2.474667 -5.376,-2.474667 z"
         style="font-style:italic;font-variant:normal;font-weight:900;font-stretch:normal;font-size:85.33333588px;font-family:'Fira Sans';-inkscape-font-specification:'Fira Sans Heavy Italic';fill:#666666"
         id="path6278" />
      <path
         d="m 322.63564,85.861689 q 0,6.144 -2.64533,10.752 -2.56,4.522671 -9.984,8.277331 l 10.66667,23.97867 h -18.77334 l -7.85066,-21.16267 h -3.49867 l -2.90133,21.16267 h -17.23734 l 8.27734,-59.392002 h 21.41866 q 10.92267,0 16.72534,4.437334 5.80266,4.437333 5.80266,11.946667 z m -30.37866,10.069333 h 4.43733 q 4.18133,0 6.144,-2.645333 2.048,-2.645334 2.048,-6.314667 0,-5.461333 -6.912,-5.461333 h -3.75467 z"
         style="font-style:italic;font-variant:normal;font-weight:900;font-stretch:normal;font-size:85.33333588px;font-family:'Fira Sans';-inkscape-font-specification:'Fira Sans Heavy Italic';fill:#666666"
         id="path6280" />
      <path
         d="m 372.28231,69.477688 -3.584,13.141334 h -13.22667 l -6.48533,46.250668 h -17.23733 l 6.48533,-46.250668 h -14.16533 l 1.792,-13.141334 z"
         style="font-style:italic;font-variant:normal;font-weight:900;font-stretch:normal;font-size:85.33333588px;font-family:'Fira Sans';-inkscape-font-specification:'Fira Sans Heavy Italic';fill:#666666"
         id="path6282" />
      <path
         d="m 417.50632,108.81636 q -0.85333,6.22933 -4.26667,11.17866 -3.328,4.864 -9.13066,7.76534 -5.80267,2.816 -13.65334,2.816 -10.752,0 -16.128,-4.77867 -5.376,-4.77867 -5.376,-13.14133 0,-1.96267 0.256,-4.01067 l 5.46134,-39.168002 h 17.23733 l -5.46133,38.826672 q -0.256,1.87733 -0.256,3.41333 0,3.24267 1.28,4.77867 1.36533,1.45066 4.352,1.45066 3.75466,0 5.71733,-2.38933 2.048,-2.38933 2.73067,-7.424 l 5.46133,-38.656002 h 17.23733 z"
         style="font-style:italic;font-variant:normal;font-weight:900;font-stretch:normal;font-size:85.33333588px;font-family:'Fira Sans';-inkscape-font-specification:'Fira Sans Heavy Italic';fill:#666666"
         id="path6284" />
      <path
         d="m 456.99965,67.771021 q 6.31467,0 11.264,2.218667 5.03467,2.218667 8.27734,5.802667 l -9.38667,8.448 q -2.73067,-2.218666 -5.12,-3.157333 -2.304,-1.024 -5.376,-1.024 -8.87467,0 -12.544,8.448 -3.66933,8.362667 -3.66933,19.626668 0,5.54667 1.792,7.76533 1.87733,2.21867 5.71733,2.21867 3.15733,0 6.4,-1.36533 l 1.536,-10.92267 h -5.888 l 0.17067,-11.861334 h 23.97866 l -4.096,29.952004 q -5.03466,3.15733 -11.17866,4.94933 -6.144,1.70667 -11.69067,1.70667 -24.40533,0 -24.40533,-23.808 0,-9.813338 3.49866,-18.688005 3.49867,-8.874667 11.17867,-14.592 7.68,-5.717334 19.54133,-5.717334 z"
         style="font-style:italic;font-variant:normal;font-weight:900;font-stretch:normal;font-size:85.33333588px;font-family:'Fira Sans';-inkscape-font-specification:'Fira Sans Heavy Italic';fill:#666666"
         id="path6286" />
      <path
         d="m 526.17298,108.81636 q -0.85334,6.22933 -4.26667,11.17866 -3.328,4.864 -9.13067,7.76534 -5.80266,2.816 -13.65333,2.816 -10.752,0 -16.128,-4.77867 -5.376,-4.77867 -5.376,-13.14133 0,-1.96267 0.256,-4.01067 l 5.46133,-39.168002 h 17.23734 l -5.46134,38.826672 q -0.256,1.87733 -0.256,3.41333 0,3.24267 1.28,4.77867 1.36534,1.45066 4.352,1.45066 3.75467,0 5.71734,-2.38933 2.048,-2.38933 2.73066,-7.424 l 5.46134,-38.656002 h 17.23733 z"
         style="font-style:italic;font-variant:normal;font-weight:900;font-stretch:normal;font-size:85.33333588px;font-family:'Fira Sans';-inkscape-font-specification:'Fira Sans Heavy Italic';fill:#666666"
         id="path6288" />
      <path
         d="m 576.50364,69.477688 -3.49866,12.202667 h -19.28534 l -1.536,11.093334 h 16.81067 l -1.536,11.861331 h -16.896 l -1.70667,11.94667 h 20.65067 l -1.70667,12.288 h -37.888 l 8.27734,-59.392002 z"
         style="font-style:italic;font-variant:normal;font-weight:900;font-stretch:normal;font-size:85.33333588px;font-family:'Fira Sans';-inkscape-font-specification:'Fira Sans Heavy Italic';fill:#666666"
         id="path6290" />
      <path
         d="m 601.59166,67.771021 q 13.14134,0 21.16267,8.192001 l -8.704,8.96 q -5.20533,-4.693334 -11.776,-4.693334 -3.41333,0 -5.29067,1.365334 -1.792,1.28 -1.792,3.413333 0,1.450667 0.768,2.389334 0.85334,0.938666 2.73067,1.792 1.96267,0.853333 5.80267,2.133333 7.76533,2.645334 11.34933,6.826667 3.66933,4.096001 3.66933,10.410671 0,5.632 -2.64533,10.66666 -2.64533,4.94934 -8.61867,8.192 -5.97333,3.15734 -15.36,3.15734 -7.59466,0 -13.312,-2.47467 -5.71733,-2.56 -9.64266,-6.57067 l 9.64266,-9.81333 q 5.71734,5.71733 13.73867,5.71733 3.84,0 5.888,-1.45066 2.048,-1.45067 2.048,-4.18134 0,-2.38933 -1.87733,-4.01066 -1.792,-1.62134 -6.48534,-3.24267 -8.53333,-2.816 -12.20266,-6.997334 -3.66934,-4.266667 -3.66934,-10.154667 0,-5.205334 2.64534,-9.642667 2.64533,-4.437334 8.192,-7.168 5.54666,-2.816001 13.73866,-2.816001 z"
         style="font-style:italic;font-variant:normal;font-weight:900;font-stretch:normal;font-size:85.33333588px;font-family:'Fira Sans';-inkscape-font-specification:'Fira Sans Heavy Italic';fill:#666666"
         id="path6292" />
      <path
         d="m 651.62365,128.86969 -0.59733,-11.52 h -13.90933 l -3.75467,11.52 h -18.00533 l 25.25866,-59.392002 h 20.65067 l 8.61867,59.392002 z m -10.58133,-23.808 h 9.30133 l -1.36533,-24.576002 z"
         style="font-style:italic;font-variant:normal;font-weight:900;font-stretch:normal;font-size:85.33333588px;font-family:'Fira Sans';-inkscape-font-specification:'Fira Sans Heavy Italic';fill:#666666"
         id="path6294" />
    </g>
  </g>
</svg>
