<?xml version="1.0" encoding="UTF-8" standalone="no"?>
<!-- Created with Inkscape (http://www.inkscape.org/) -->

<svg
   xmlns:osb="http://www.openswatchbook.org/uri/2009/osb"
   xmlns:dc="http://purl.org/dc/elements/1.1/"
   xmlns:cc="http://creativecommons.org/ns#"
   xmlns:rdf="http://www.w3.org/1999/02/22-rdf-syntax-ns#"
   xmlns:svg="http://www.w3.org/2000/svg"
   xmlns="http://www.w3.org/2000/svg"
   xmlns:xlink="http://www.w3.org/1999/xlink"
   xmlns:sodipodi="http://sodipodi.sourceforge.net/DTD/sodipodi-0.dtd"
   xmlns:inkscape="http://www.inkscape.org/namespaces/inkscape"
   width="230"
   height="100"
   viewBox="0 0 60.854166 26.458333"
   version="1.1"
   id="svg30"
   inkscape:version="0.92.4 (5da689c313, 2019-01-14)"
   sodipodi:docname="logotipo-color.svg">
  <defs
     id="defs24">
    <linearGradient
       inkscape:collect="always"
       id="linearGradient964">
      <stop
         style="stop-color:#011ada;stop-opacity:1"
         offset="0"
         id="stop960" />
      <stop
         style="stop-color:#710dd5;stop-opacity:1"
         offset="1"
         id="stop962" />
    </linearGradient>
    <linearGradient
       id="linearGradient4608">
      <stop
         id="stop879"
         offset="0"
         style="stop-color:#000000;stop-opacity:1;" />
    </linearGradient>
    <linearGradient
       id="linearGradient6136"
       osb:paint="solid">
      <stop
         style="stop-color:#000000;stop-opacity:1;"
         offset="0"
         id="stop6134" />
    </linearGradient>
    <linearGradient
       id="linearGradient6104"
       osb:paint="solid">
      <stop
         style="stop-color:#000000;stop-opacity:1;"
         offset="0"
         id="stop6102" />
    </linearGradient>
    <linearGradient
       id="linearGradient6098"
       osb:paint="solid">
      <stop
         style="stop-color:#000000;stop-opacity:1;"
         offset="0"
         id="stop6096" />
    </linearGradient>
    <linearGradient
       id="linearGradient6090"
       osb:paint="solid">
      <stop
         style="stop-color:#000000;stop-opacity:1;"
         offset="0"
         id="stop6088" />
    </linearGradient>
    <linearGradient
       id="linearGradient6070"
       osb:paint="solid">
      <stop
         style="stop-color:#000000;stop-opacity:1;"
         offset="0"
         id="stop6068" />
    </linearGradient>
    <linearGradient
       id="linearGradient4628"
       osb:paint="solid">
      <stop
         style="stop-color:#000000;stop-opacity:0;"
         offset="0"
         id="stop4626" />
    </linearGradient>
    <linearGradient
       id="linearGradient4622"
       osb:paint="solid">
      <stop
         style="stop-color:#000000;stop-opacity:0.63921571;"
         offset="0"
         id="stop4620" />
    </linearGradient>
    <linearGradient
       id="linearGradient4608-6">
      <stop
         style="stop-color:#000000;stop-opacity:1;"
         offset="0"
         id="stop4606" />
    </linearGradient>
    <linearGradient
       inkscape:collect="always"
       xlink:href="#linearGradient964"
       id="linearGradient966"
       x1="54.069496"
       y1="263.96487"
       x2="54.258488"
       y2="289.85626"
       gradientUnits="userSpaceOnUse" />
  </defs>
  <sodipodi:namedview
     id="base"
     pagecolor="#ffffff"
     bordercolor="#666666"
     borderopacity="1.0"
     inkscape:pageopacity="0.0"
     inkscape:pageshadow="2"
     inkscape:zoom="1.4"
     inkscape:cx="142.14286"
     inkscape:cy="24.279162"
     inkscape:document-units="mm"
     inkscape:current-layer="g48"
     showgrid="false"
     units="px"
     inkscape:window-width="1600"
     inkscape:window-height="837"
     inkscape:window-x="-8"
     inkscape:window-y="-8"
     inkscape:window-maximized="1"
     inkscape:snap-page="true"
     inkscape:snap-global="false" />
  <metadata
     id="metadata27">
    <rdf:RDF>
      <cc:Work
         rdf:about="">
        <dc:format>image/svg+xml</dc:format>
        <dc:type
           rdf:resource="http://purl.org/dc/dcmitype/StillImage" />
        <dc:title></dc:title>
      </cc:Work>
    </rdf:RDF>
  </metadata>
  <g
     transform="translate(0,-270.54167)"
     id="g48"
     inkscape:groupmode="layer"
     inkscape:label="Capa 1 copia">
    <g
       aria-label="Sepa"
       style="font-style:normal;font-variant:normal;font-weight:800;font-stretch:normal;font-size:25.39999962px;line-height:1.25;font-family:Assistant;-inkscape-font-specification:'Assistant Ultra-Bold';letter-spacing:0px;word-spacing:0px;fill:url(#linearGradient966);fill-opacity:1;stroke:none;stroke-width:0.26458332;fill-rule:nonzero"
       id="text77"
       transform="translate(-21.185567,6.5767857)">
      <path
         d="m 31.799747,285.27767 q -1.6256,0 -3.302,-0.5842 -1.651,-0.6096 -2.9464,-1.778 l 2.4892,-2.9972 q 0.889,0.7112 1.9304,1.1684 1.0414,0.4318 1.9304,0.4318 1.8796,0 1.8796,-1.1684 0,-0.381 -0.254,-0.6096 -0.254,-0.254 -0.7874,-0.4826 -0.5334,-0.254 -1.1938,-0.508 l -2.0574,-0.8636 q -1.4732,-0.5842 -2.413,-1.7526 -0.9144,-1.1684 -0.9144,-2.8448 0,-1.397 0.7874,-2.5654 0.7874,-1.1938 2.1844,-1.8796 1.4224,-0.6858 3.175,-0.6858 1.4732,0 2.921,0.5588 1.4732,0.5588 2.5654,1.651 l -2.1844,2.7432 q -0.8636,-0.6096 -1.651,-0.889 -0.762,-0.3048 -1.651,-0.3048 -0.8128,0 -1.27,0.3048 -0.4572,0.2794 -0.4572,0.8128 0,0.381 0.2794,0.635 0.2794,0.254 0.8636,0.508 0.5842,0.254 1.2954,0.508 l 2.0066,0.7874 q 3.2258,1.27 3.2258,4.5212 0,1.4224 -0.7874,2.6416 -0.762,1.1938 -2.2352,1.9304 -1.4478,0.7112 -3.429,0.7112 z"
         style="font-style:normal;font-variant:normal;font-weight:800;font-stretch:normal;font-size:25.39999962px;font-family:Assistant;-inkscape-font-specification:'Assistant Ultra-Bold';fill:url(#linearGradient966);stroke-width:0.26458332;fill-opacity:1;fill-rule:nonzero"
         id="path6184"
         inkscape:connector-curvature="0" />
      <path
         d="m 53.109157,278.11487 q 0,1.1176 -0.1778,1.8288 h -7.3152 q 0.3048,1.1176 1.1176,1.5748 0.8382,0.4572 1.905,0.4572 1.2192,0 2.5908,-0.762 l 1.4224,2.5908 q -0.9906,0.7112 -2.2606,1.0922 -1.2446,0.381 -2.3622,0.381 -1.8796,0 -3.3782,-0.7874 -1.4732,-0.7874 -2.3368,-2.286 -0.8382,-1.524 -0.8382,-3.5814 0,-1.9812 0.8636,-3.4798 0.8636,-1.524 2.2606,-2.3368 1.397,-0.8382 2.9718,-0.8382 2.6924,0 4.1148,1.7272 1.4224,1.7272 1.4224,4.4196 z m -3.7084,-1.016 q 0,-0.8128 -0.4064,-1.3208 -0.4064,-0.508 -1.3208,-0.508 -0.7112,0 -1.27,0.4572 -0.5334,0.4318 -0.7874,1.3716 z"
         style="font-style:normal;font-variant:normal;font-weight:800;font-stretch:normal;font-size:25.39999962px;font-family:Assistant;-inkscape-font-specification:'Assistant Ultra-Bold';fill:url(#linearGradient966);stroke-width:0.26458332;fill-opacity:1;fill-rule:nonzero"
         id="path6186"
         inkscape:connector-curvature="0" />
      <path
         d="m 55.48128,272.27287 h 3.555999 l 0.3048,1.1684 h 0.1016 q 0.7366,-0.6858 1.6256,-1.0668 0.9144,-0.4064 1.8288,-0.4064 1.4732,0 2.5908,0.8128 1.1176,0.7874 1.7272,2.2606 0.6096,1.4478 0.6096,3.3782 0,2.1082 -0.7366,3.6576 -0.7366,1.5494 -1.9558,2.3876 -1.2192,0.8128 -2.5908,0.8128 -1.5748,0 -2.8448,-1.27 l 0.1524,1.9304 v 3.5052 H 55.48128 Z m 5.994399,9.4488 q 0.8382,0 1.3462,-0.762 0.5334,-0.7874 0.5334,-2.4892 0,-1.524 -0.4572,-2.2352 -0.4318,-0.7112 -1.3208,-0.7112 -0.508,0 -0.9144,0.2286 -0.4064,0.2032 -0.8128,0.6858 v 4.6736 q 0.6858,0.6096 1.6256,0.6096 z"
         style="font-style:normal;font-variant:normal;font-weight:800;font-stretch:normal;font-size:25.39999962px;font-family:Assistant;-inkscape-font-specification:'Assistant Ultra-Bold';fill:url(#linearGradient966);stroke-width:0.26458332;fill-opacity:1;fill-rule:nonzero"
         id="path6188"
         inkscape:connector-curvature="0" />
      <path
         d="m 73.269217,285.27767 c -0.762,0 -1.439333,-0.1778 -2.032,-0.5334 -0.575733,-0.3556 -1.016,-0.82973 -1.3208,-1.4224 -0.3048,-0.59267 -0.4572,-1.2446 -0.4572,-1.9558 0,-1.33773 0.541867,-2.37913 1.6256,-3.1242 1.100667,-0.74507 2.861733,-1.2446 5.2832,-1.4986 -0.0508,-0.4572 -0.220133,-0.7874 -0.508,-0.9906 -0.287867,-0.22013 -0.7112,-0.3302 -1.27,-0.3302 -0.440267,0 -0.9144,0.0847 -1.4224,0.254 -0.508,0.16933 -1.100667,0.44027 -1.778,0.8128 l -1.524,-2.8448 c 1.862667,-1.1176 3.725333,-1.6764 5.588,-1.6764 3.522133,0 5.283199,1.9812 5.283199,5.9436 v 7.0612 h -3.839481 l -0.02132,-1.2192 v 0 c -1.134533,1.016 -2.404533,1.524 -3.6068,1.524 z m 1.524,-3.3528 c 0.321733,0 0.592667,-0.0677 0.8128,-0.2032 0.237067,-0.1524 0.491067,-0.37253 0.762,-0.6604 v -1.7272 c -1.8288,0.27093 -2.7432,0.82973 -2.7432,1.6764 0,0.28787 0.1016,0.51647 0.3048,0.6858 0.2032,0.1524 0.491067,0.2286 0.8636,0.2286 z"
         style="font-style:normal;font-variant:normal;font-weight:800;font-stretch:normal;font-size:25.39999962px;font-family:Assistant;-inkscape-font-specification:'Assistant Ultra-Bold';fill:url(#linearGradient966);stroke-width:0.26458332;fill-opacity:1;fill-rule:nonzero"
         id="path6190"
         inkscape:connector-curvature="0"
         sodipodi:nodetypes="scsscccssccssccccsssccscss" />
    </g>
    <rect
       style="opacity:1;fill:#ffffff;fill-opacity:0.02762433;stroke:#4013d7;stroke-width:1.43285489;stroke-miterlimit:4;stroke-dasharray:none;stroke-opacity:1"
       id="rect6094"
       width="16.668509"
       height="21.123575"
       x="2.2261107"
       y="272.7854" />
  </g>
  <g
     inkscape:label="Capa 1"
     inkscape:groupmode="layer"
     id="layer1"
     transform="translate(0,-270.54167)" />
</svg>
